<svg width="24" height="24" viewBox="0 0 24 24" fill="none" xmlns="http://www.w3.org/2000/svg">
<path d="M12 12.6399C11.6429 12.6413 11.296 12.76 11.0129 12.9776C10.7297 13.1953 10.5259 13.5 10.4328 13.8448C10.3396 14.1895 10.3623 14.5554 10.4973 14.886C10.6323 15.2167 10.8721 15.4939 11.18 15.6749V17.9999H12.84V15.6749C13.0836 15.5308 13.2857 15.3262 13.4268 15.0809C13.5678 14.8356 13.643 14.5579 13.645 14.2749C13.645 14.0594 13.6024 13.8459 13.5196 13.6469C13.4368 13.4479 13.3155 13.2672 13.1626 13.1153C13.0097 12.9633 12.8283 12.8431 12.6288 12.7615C12.4292 12.6799 12.2156 12.6386 12 12.6399Z" stroke="black" stroke-width="0.5" stroke-linecap="round" stroke-linejoin="round"/>
<path d="M18.1449 8.88501H5.84994C4.65701 8.88501 3.68994 9.85207 3.68994 11.045V19.59C3.68994 20.7829 4.65701 21.75 5.84994 21.75H18.1449C19.3379 21.75 20.3049 20.7829 20.3049 19.59V11.045C20.3049 9.85207 19.3379 8.88501 18.1449 8.88501Z" stroke="black" stroke-width="0.5" stroke-linecap="round" stroke-linejoin="round"/>
<path d="M6.67505 8.885V7.58C6.67505 6.1664 7.2366 4.81069 8.23617 3.81112C9.23574 2.81155 10.5914 2.25 12.005 2.25C13.4187 2.25 14.7744 2.81155 15.7739 3.81112C16.7735 4.81069 17.335 6.1664 17.335 7.58V8.885" stroke="black" stroke-width="0.5" stroke-linecap="round" stroke-linejoin="round"/>
</svg>
