<svg width="36" height="36" viewBox="0 0 36 36" fill="none" xmlns="http://www.w3.org/2000/svg">
<mask id="path-1-inside-1_2010_1928" fill="white">
<path d="M0 18C0 8.05888 8.05888 0 18 0C27.9411 0 36 8.05888 36 18C36 27.9411 27.9411 36 18 36C8.05888 36 0 27.9411 0 18Z"/>
</mask>
<path d="M0 18C0 8.05888 8.05888 0 18 0C27.9411 0 36 8.05888 36 18C36 27.9411 27.9411 36 18 36C8.05888 36 0 27.9411 0 18Z" fill="#FDEAEA"/>
<path d="M0 18M36 18M36 18M0 18M18 0M36 18M18 36M0 18M18 36V35C8.61116 35 1 27.3888 1 18H0H-1C-1 28.4934 7.50659 37 18 37V36ZM36 18H35C35 27.3888 27.3888 35 18 35V36V37C28.4934 37 37 28.4934 37 18H36ZM18 0V1C27.3888 1 35 8.61116 35 18H36H37C37 7.50659 28.4934 -1 18 -1V0ZM18 0V-1C7.50659 -1 -1 7.50659 -1 18H0H1C1 8.61116 8.61116 1 18 1V0Z" fill="#F5A0A0" mask="url(#path-1-inside-1_2010_1928)"/>
<path d="M16.86 12.5735L11.2133 22.0001C11.0969 22.2018 11.0353 22.4303 11.0347 22.6631C11.034 22.896 11.0943 23.1249 11.2096 23.3272C11.3249 23.5294 11.4912 23.698 11.6918 23.816C11.8925 23.9341 12.1205 23.9976 12.3533 24.0001H23.6467C23.8795 23.9976 24.1076 23.9341 24.3082 23.816C24.5089 23.698 24.6751 23.5294 24.7904 23.3272C24.9057 23.1249 24.966 22.896 24.9654 22.6631C24.9647 22.4303 24.9031 22.2018 24.7867 22.0001L19.14 12.5735C19.0212 12.3775 18.8538 12.2155 18.6541 12.1031C18.4545 11.9907 18.2292 11.9316 18 11.9316C17.7709 11.9316 17.5456 11.9907 17.3459 12.1031C17.1462 12.2155 16.9789 12.3775 16.86 12.5735Z" stroke="#C0392B" stroke-width="1.33333"/>
<path d="M18 16V18.6667" stroke="#C0392B" stroke-width="1.33333"/>
<path d="M18 21.3335H18.0067" stroke="#C0392B" stroke-width="1.33333"/>
</svg>
