<svg width="24" height="24" viewBox="0 0 24 24" fill="none" xmlns="http://www.w3.org/2000/svg">
<path opacity="0.5" fill-rule="evenodd" clip-rule="evenodd" d="M20.5299 4.53009C20.6624 4.38792 20.7345 4.19987 20.7311 4.00557C20.7277 3.81127 20.6489 3.62588 20.5115 3.48847C20.3741 3.35106 20.1887 3.27234 19.9944 3.26892C19.8001 3.26549 19.6121 3.33761 19.4699 3.47009L3.46991 19.4701C3.39622 19.5388 3.33712 19.6216 3.29613 19.7136C3.25514 19.8056 3.23309 19.9049 3.23132 20.0056C3.22954 20.1063 3.24807 20.2063 3.28579 20.2997C3.32351 20.3931 3.37965 20.4779 3.45087 20.5491C3.52209 20.6203 3.60692 20.6765 3.70031 20.7142C3.7937 20.7519 3.89373 20.7705 3.99443 20.7687C4.09513 20.7669 4.19445 20.7449 4.28645 20.7039C4.37845 20.6629 4.46125 20.6038 4.52991 20.5301L7.37691 17.6831C8.74391 18.3271 10.3169 18.7501 11.9999 18.7501C14.6839 18.7501 17.0899 17.6731 18.8199 16.3451C19.6869 15.6801 20.4029 14.9381 20.9089 14.2091C21.4009 13.5001 21.7499 12.7231 21.7499 12.0001C21.7499 11.2771 21.3999 10.5001 20.9089 9.79109C20.4029 9.06209 19.6869 8.32109 18.8209 7.65509C18.5582 7.45309 18.2809 7.25876 17.9889 7.07209L20.5299 4.53009ZM16.8999 8.16109L15.1289 9.93209C15.6064 10.6532 15.8199 11.5172 15.7333 12.3778C15.6467 13.2383 15.2654 14.0424 14.6538 14.654C14.0423 15.2655 13.2381 15.6469 12.3776 15.7335C11.517 15.8201 10.653 15.6066 9.93191 15.1291L8.51491 16.5451C9.62042 17.002 10.8037 17.2414 11.9999 17.2501C14.2869 17.2501 16.3799 16.3271 17.9069 15.1551C18.6689 14.5701 19.2709 13.9371 19.6769 13.3541C20.0959 12.7501 20.2499 12.2771 20.2499 12.0001C20.2499 11.7231 20.0959 11.2501 19.6769 10.6461C19.2709 10.0631 18.6689 9.43009 17.9069 8.84509C17.5936 8.60442 17.2586 8.37642 16.8999 8.16109ZM11.0289 14.0311C11.4488 14.2316 11.9205 14.297 12.3791 14.2184C12.8376 14.1397 13.2606 13.9208 13.5896 13.5918C13.9186 13.2627 14.1375 12.8398 14.2162 12.3812C14.2949 11.9227 14.2294 11.451 14.0289 11.0311L11.0289 14.0311Z" fill="black"/>
<path opacity="0.5" d="M12 5.25C13.032 5.25 14.024 5.41 14.951 5.681C14.9916 5.69311 15.0283 5.71562 15.0575 5.74629C15.0867 5.77697 15.1074 5.81474 15.1175 5.85588C15.1276 5.89701 15.1268 5.94007 15.1151 5.98078C15.1035 6.0215 15.0814 6.05846 15.051 6.088L14.227 6.913C14.1966 6.94368 14.1589 6.96597 14.1173 6.97771C14.0758 6.98945 14.0319 6.99024 13.99 6.98C13.3373 6.82952 12.6698 6.75237 12 6.75C9.713 6.75 7.62 7.673 6.093 8.845C5.331 9.43 4.729 10.063 4.323 10.646C3.904 11.25 3.75 11.723 3.75 12C3.75 12.277 3.904 12.75 4.323 13.354C4.677 13.864 5.181 14.411 5.811 14.931C5.927 15.026 5.938 15.201 5.831 15.308L5.123 16.017C5.07964 16.061 5.02132 16.087 4.95962 16.09C4.89793 16.093 4.83738 16.0726 4.79 16.033C4.14601 15.5023 3.57476 14.889 3.091 14.209C2.6 13.5 2.25 12.723 2.25 12C2.25 11.277 2.6 10.5 3.091 9.791C3.597 9.062 4.313 8.321 5.179 7.655C6.91 6.327 9.316 5.25 12 5.25Z" fill="black"/>
<path opacity="0.5" d="M12 8.25C12.1186 8.25 12.2356 8.25533 12.351 8.266C12.548 8.285 12.619 8.52 12.48 8.66L11.267 9.872C10.9441 9.98393 10.6508 10.1676 10.4092 10.4092C10.1676 10.6509 9.98391 10.9441 9.87197 11.267L8.65998 12.48C8.51998 12.62 8.28497 12.548 8.26597 12.351C8.21711 11.8312 8.27732 11.3069 8.44275 10.8117C8.60819 10.3166 8.8752 9.86137 9.2267 9.47532C9.57819 9.08928 10.0064 8.78089 10.484 8.56989C10.9615 8.35889 11.4779 8.24994 12 8.25Z" fill="black"/>
</svg>
