<svg width="14" height="14" viewBox="0 0 14 14" fill="none" xmlns="http://www.w3.org/2000/svg">
<path d="M11.0833 6.4165H2.91667C2.27233 6.4165 1.75 6.93884 1.75 7.58317V11.6665C1.75 12.3108 2.27233 12.8332 2.91667 12.8332H11.0833C11.7277 12.8332 12.25 12.3108 12.25 11.6665V7.58317C12.25 6.93884 11.7277 6.4165 11.0833 6.4165Z" stroke="#BBA0A0" stroke-width="1.16667"/>
<path d="M4.08325 6.4165V4.08317C4.08325 3.30962 4.39054 2.56776 4.93752 2.02078C5.4845 1.47379 6.22637 1.1665 6.99992 1.1665C7.77347 1.1665 8.51533 1.47379 9.06231 2.02078C9.60929 2.56776 9.91659 3.30962 9.91659 4.08317V6.4165" stroke="#BBA0A0" stroke-width="1.16667"/>
</svg>
