<svg width="38" height="38" viewBox="0 0 38 38" fill="none" xmlns="http://www.w3.org/2000/svg">
<rect width="38" height="38" rx="19" fill="#FBE0DA"/>
<path d="M15.3152 25L13.5427 23.0028C13.1953 22.6115 13.0001 22.0808 13 21.5273V17.1739C13 16.8972 13.0976 16.6318 13.2712 16.4361C13.4449 16.2404 13.6805 16.1304 13.9261 16.1304C14.1717 16.1304 14.4072 16.2404 14.5809 16.4361C14.7546 16.6318 14.8521 16.8972 14.8521 17.1739V20.3043M22.6848 25L24.4573 23.0028C24.8047 22.6115 24.9999 22.0808 25 21.5273V17.1739C25 16.8972 24.9024 16.6318 24.7288 16.4361C24.5551 16.2404 24.3195 16.1304 24.0739 16.1304C23.8283 16.1304 23.5928 16.2404 23.4191 16.4361C23.2454 16.6318 23.1479 16.8972 23.1479 17.1739V20.3043" stroke="#F24822" stroke-opacity="0.6" stroke-linecap="round" stroke-linejoin="round"/>
<path d="M15.6998 22.2118L15.0451 21.4741C14.8764 21.2773 14.7831 21.0137 14.7852 20.7401C14.7873 20.4665 14.8847 20.2048 15.0564 20.0113C15.2281 19.8178 15.4604 19.7081 15.7032 19.7057C15.946 19.7034 16.1799 19.8085 16.3546 19.9986L17.552 21.3478C17.899 21.7393 18.0939 22.27 18.0937 22.8233V25M22.3009 22.2118L22.9556 21.4741C23.1243 21.2773 23.2176 21.0137 23.2155 20.7401C23.2134 20.4665 23.116 20.2048 22.9443 20.0113C22.7726 19.8178 22.5403 19.7081 22.2975 19.7057C22.0547 19.7034 21.8208 19.8085 21.6461 19.9986L20.4487 21.3478C20.1017 21.7393 19.9068 22.27 19.907 22.8233V25M20.8719 17.0863C20.8719 15.9103 19.0198 13 19.0198 13C19.0198 13 17.1677 15.9113 17.1677 17.0863C17.1677 17.6623 17.3631 18.2163 17.7103 18.6243C18.0576 19.0313 18.529 19.2609 19.0198 19.2609C19.5106 19.2609 19.9829 19.0313 20.3302 18.6243C20.6797 18.2093 20.8738 17.6584 20.8719 17.0863Z" stroke="#F24822" stroke-opacity="0.6" stroke-linecap="round" stroke-linejoin="round"/>
</svg>
