<svg width="38" height="38" viewBox="0 0 38 38" fill="none" xmlns="http://www.w3.org/2000/svg">
<rect width="38" height="37.6238" rx="18.8119" fill="#FBE0DA"/>
<path fill-rule="evenodd" clip-rule="evenodd" d="M18.9995 12.499L18.7258 12.1013H18.7239L18.7202 12.1054L18.7091 12.1155C18.6433 12.1704 18.5785 12.2269 18.5149 12.285C17.7346 12.9996 17.0177 13.7938 16.374 14.6569C15.2134 16.2222 14 18.4541 14 20.9843C14 22.6633 14.64 23.9365 15.6027 24.7765C16.5534 25.6074 17.7945 26 18.9995 26C20.2055 26 21.4466 25.6074 22.3973 24.7765C23.3591 23.9355 24 22.6633 24 20.9843C24 18.4541 22.7866 16.2222 21.626 14.6569C20.9823 13.7935 20.2654 12.9989 19.4851 12.2839L19.2909 12.1135L19.2798 12.1034L19.2761 12.1013H19.2742C19.1954 12.0356 19.099 12 19 12C18.901 12 18.8046 12.0356 18.7258 12.1013L18.76 12.151L18.9995 12.499ZM18.0618 17.4265C18.0618 17.2093 18.2218 17.0338 18.4197 17.0338H19.5812C19.7792 17.0338 19.9391 17.2093 19.9391 17.4265V18.9857H21.3606C21.5585 18.9857 21.7185 19.1623 21.7185 19.3784V20.6536C21.7182 20.7575 21.6804 20.8571 21.6133 20.9305C21.5462 21.004 21.4553 21.0452 21.3606 21.0452H19.9391V22.6055C19.9391 22.7096 19.9014 22.8095 19.8343 22.8831C19.7672 22.9567 19.6762 22.9981 19.5812 22.9981H18.4188C18.324 22.9978 18.2332 22.9563 18.1663 22.8827C18.0994 22.8091 18.0618 22.7094 18.0618 22.6055V21.0452H16.6394C16.5448 21.0449 16.4542 21.0036 16.3873 20.9302C16.3204 20.8568 16.2827 20.7574 16.2824 20.6536V19.3784C16.2824 19.1623 16.4424 18.9857 16.6394 18.9857H18.0618V17.4265Z" fill="#B03020" fill-opacity="0.6"/>
</svg>
