<svg width="38" height="38" viewBox="0 0 38 38" fill="none" xmlns="http://www.w3.org/2000/svg">
<rect width="38" height="38" rx="19" fill="#FDECD4"/>
<path opacity="0.6" d="M24 16.9C24 16.2565 23.8707 15.6193 23.6194 15.0249C23.3681 14.4304 22.9998 13.8902 22.5355 13.4352C22.0712 12.9802 21.52 12.6192 20.9134 12.373C20.3068 12.1267 19.6566 12 19 12C18.3434 12 17.6932 12.1267 17.0866 12.373C16.48 12.6192 15.9288 12.9802 15.4645 13.4352C15.0002 13.8902 14.6319 14.4304 14.3806 15.0249C14.1293 15.6193 14 16.2565 14 16.9C14 17.8709 14.2921 18.7739 14.7893 19.5355H14.7836L19 26L23.2164 19.5355H23.2114C23.7264 18.7491 24.0001 17.8344 24 16.9ZM19 19C18.4317 19 17.8866 18.7788 17.4848 18.3849C17.0829 17.9911 16.8571 17.457 16.8571 16.9C16.8571 16.343 17.0829 15.8089 17.4848 15.4151C17.8866 15.0212 18.4317 14.8 19 14.8C19.5683 14.8 20.1134 15.0212 20.5152 15.4151C20.9171 15.8089 21.1429 16.343 21.1429 16.9C21.1429 17.457 20.9171 17.9911 20.5152 18.3849C20.1134 18.7788 19.5683 19 19 19Z" fill="#FFA629"/>
</svg>
