<svg width="38" height="38" viewBox="0 0 38 38" fill="none" xmlns="http://www.w3.org/2000/svg">
<rect width="38" height="38" rx="19" fill="#DAF2E6"/>
<path fill-rule="evenodd" clip-rule="evenodd" d="M19 25C19.7879 25 20.5681 24.8448 21.2961 24.5433C22.0241 24.2417 22.6855 23.7998 23.2426 23.2426C23.7998 22.6855 24.2417 22.0241 24.5433 21.2961C24.8448 20.5681 25 19.7879 25 19C25 18.2121 24.8448 17.4319 24.5433 16.7039C24.2417 15.9759 23.7998 15.3145 23.2426 14.7574C22.6855 14.2002 22.0241 13.7583 21.2961 13.4567C20.5681 13.1552 19.7879 13 19 13C17.4087 13 15.8826 13.6321 14.7574 14.7574C13.6321 15.8826 13 17.4087 13 19C13 20.5913 13.6321 22.1174 14.7574 23.2426C15.8826 24.3679 17.4087 25 19 25ZM18.8453 21.4267L22.1787 17.4267L21.1547 16.5733L18.288 20.0127L16.8047 18.5287L15.862 19.4713L17.862 21.4713L18.378 21.9873L18.8453 21.4267Z" fill="#1A6E40" fill-opacity="0.6"/>
</svg>
