<svg width="52" height="26" viewBox="0 0 52 26" fill="none" xmlns="http://www.w3.org/2000/svg">
<rect width="52" height="26" rx="10" fill="#8CC7AE"/>
<path d="M25.7498 12.0455C25.7498 13.2209 25.5296 14.2276 25.0893 15.0657C24.6525 15.9002 24.0559 16.5394 23.2995 16.9833C22.5467 17.4272 21.6926 17.6491 20.7374 17.6491C19.7821 17.6491 18.9263 17.4272 18.1699 16.9833C17.417 16.5359 16.8205 15.8949 16.3801 15.0604C15.9433 14.2223 15.7249 13.2173 15.7249 12.0455C15.7249 10.87 15.9433 9.86506 16.3801 9.03054C16.8205 8.19247 17.417 7.55149 18.1699 7.1076C18.9263 6.66371 19.7821 6.44176 20.7374 6.44176C21.6926 6.44176 22.5467 6.66371 23.2995 7.1076C24.0559 7.55149 24.6525 8.19247 25.0893 9.03054C25.5296 9.86506 25.7498 10.87 25.7498 12.0455ZM23.7629 12.0455C23.7629 11.218 23.6333 10.5202 23.3741 9.95206C23.1184 9.38033 22.7633 8.94886 22.3087 8.65767C21.8542 8.36293 21.3304 8.21555 20.7374 8.21555C20.1443 8.21555 19.6205 8.36293 19.166 8.65767C18.7114 8.94886 18.3545 9.38033 18.0953 9.95206C17.8396 10.5202 17.7118 11.218 17.7118 12.0455C17.7118 12.8729 17.8396 13.5724 18.0953 14.1442C18.3545 14.7124 18.7114 15.1438 19.166 15.4386C19.6205 15.7298 20.1443 15.8754 20.7374 15.8754C21.3304 15.8754 21.8542 15.7298 22.3087 15.4386C22.7633 15.1438 23.1184 14.7124 23.3741 14.1442C23.6333 13.5724 23.7629 12.8729 23.7629 12.0455ZM30.7502 15.7528V8.38068H32.4228V15.7528H30.7502ZM27.9004 12.9031V11.2305H35.2726V12.9031H27.9004Z" fill="white"/>
</svg>
