<svg width="39" height="39" viewBox="0 0 39 39" fill="none" xmlns="http://www.w3.org/2000/svg">
<path opacity="0.987" fill-rule="evenodd" clip-rule="evenodd" d="M17.572 2.58619C19.3392 2.38875 20.3849 2.38875 22.2837 2.58619C25.6448 3.08367 28.7606 4.63731 31.1805 7.02244C29.5453 8.56814 27.9315 10.1364 26.3397 11.7268C23.2912 9.14306 19.8884 8.54669 16.1314 9.93769C13.3754 11.2052 11.4563 13.2592 10.374 16.0997C8.60549 14.783 6.85998 13.4357 5.13829 12.0583C5.01864 11.9953 4.88198 11.9723 4.74829 11.9925C7.48317 6.71938 11.7569 3.58313 17.5695 2.58375" fill="#F44336"/>
<path opacity="0.997" fill-rule="evenodd" clip-rule="evenodd" d="M4.74338 11.9925C4.8815 11.9714 5.01232 11.9933 5.13582 12.0583C6.8575 13.4357 8.60301 14.783 10.3716 16.0997C10.0933 17.2065 9.91783 18.3366 9.8475 19.4756C9.90763 20.5774 10.0823 21.6588 10.3716 22.72L4.875 27.0953C2.48138 22.0935 2.4375 17.0593 4.74338 11.9925Z" fill="#FFC107"/>
<path opacity="0.999" fill-rule="evenodd" clip-rule="evenodd" d="M30.9197 32.3944C29.2082 30.885 27.4165 29.4692 25.5523 28.1531C27.4211 26.8336 28.5553 25.0234 28.9551 22.7224H19.7974V16.3629C25.0786 16.319 30.3574 16.3637 35.6338 16.497C36.6348 21.9326 35.4786 26.8336 32.1652 31.2C31.7713 31.6188 31.3539 32.0174 30.9197 32.3944Z" fill="#448AFF"/>
<path opacity="0.993" fill-rule="evenodd" clip-rule="evenodd" d="M10.3716 22.7224C12.3703 27.69 16.0347 30.0089 21.3647 29.679C22.8609 29.5058 24.2954 28.9831 25.5523 28.1531C27.4178 29.4726 29.2069 30.8864 30.9197 32.3944C28.2059 34.833 24.7458 36.2799 21.1039 36.4991C20.2764 36.5652 19.4451 36.5652 18.6176 36.4991C12.4134 35.7679 7.8325 32.6332 4.875 27.0952L10.3716 22.7224Z" fill="#43A047"/>
</svg>
