<svg width="140" height="140" viewBox="0 0 140 140" fill="none" xmlns="http://www.w3.org/2000/svg">
<path d="M58.5393 96.9887L31.667 70.11L40.6223 61.1547L58.5393 79.0653L94.3607 43.2377L103.322 52.1993L58.5393 96.9887Z" fill="#FCE8DF"/>
<path fill-rule="evenodd" clip-rule="evenodd" d="M0 69.6667C0 31.1917 31.1917 0 69.6667 0C108.142 0 139.333 31.1917 139.333 69.6667C139.333 108.142 108.142 139.333 69.6667 139.333C31.1917 139.333 0 108.142 0 69.6667ZM69.6667 126.667C62.1813 126.667 54.7693 125.192 47.8537 122.328C40.9382 119.463 34.6545 115.265 29.3616 109.972C24.0686 104.679 19.8701 98.3952 17.0055 91.4796C14.141 84.5641 12.6667 77.152 12.6667 69.6667C12.6667 62.1813 14.141 54.7693 17.0055 47.8537C19.8701 40.9382 24.0686 34.6545 29.3616 29.3616C34.6545 24.0686 40.9382 19.8701 47.8537 17.0055C54.7693 14.141 62.1813 12.6667 69.6667 12.6667C84.784 12.6667 99.2822 18.672 109.972 29.3616C120.661 40.0512 126.667 54.5493 126.667 69.6667C126.667 84.784 120.661 99.2822 109.972 109.972C99.2822 120.661 84.784 126.667 69.6667 126.667Z" fill="#FCE8DF"/>
</svg>
