<svg width="12" height="16" viewBox="0 0 12 16" fill="none" xmlns="http://www.w3.org/2000/svg">
<path opacity="0.5" d="M5.84375 0C2.61763 0 0 2.29493 0 5.12277C0 9.67634 5.84375 15.9375 5.84375 15.9375C5.84375 15.9375 11.6875 9.67634 11.6875 5.12277C11.6875 2.29493 9.06987 0 5.84375 0ZM5.84375 7.96875C5.38144 7.96875 4.9295 7.83522 4.5451 7.58504C4.16071 7.33487 3.8611 6.97928 3.68418 6.56325C3.50726 6.14722 3.46097 5.68944 3.55116 5.24779C3.64136 4.80613 3.86398 4.40045 4.19089 4.08203C4.51779 3.76362 4.9343 3.54678 5.38773 3.45893C5.84116 3.37108 6.31115 3.41616 6.73827 3.58849C7.16539 3.76081 7.53046 4.05263 7.78731 4.42705C8.04416 4.80147 8.18125 5.24166 8.18125 5.69196C8.18057 6.2956 7.93408 6.87433 7.49587 7.30117C7.05765 7.728 6.46349 7.96809 5.84375 7.96875Z" fill="black"/>
</svg>
