<svg width="65" height="65" viewBox="0 0 65 65" fill="none" xmlns="http://www.w3.org/2000/svg">
<circle cx="32.5" cy="32.5" r="32.5" fill="#FFE9E9"/>
<path d="M33 18.5975L31.6875 20.0675C31.6875 20.0675 29.4475 22.605 27.19 25.895C24.9325 29.185 22.5 33.1225 22.5 36.9025C22.5 39.6873 23.6062 42.358 25.5754 44.3272C27.5445 46.2963 30.2152 47.4025 33 47.4025C35.7848 47.4025 38.4555 46.2963 40.4246 44.3272C42.3938 42.358 43.5 39.6873 43.5 36.9025C43.5 33.1225 41.0675 29.185 38.81 25.895C36.5525 22.605 34.3125 20.0675 34.3125 20.0675L33 18.5975ZM33 24.075C33.77 24.985 34.47 25.7375 35.94 27.8725C38.0575 30.9525 40 34.8725 40 36.9025C40 40.7875 36.885 43.9025 33 43.9025C29.115 43.9025 26 40.7875 26 36.9025C26 34.8725 27.9425 30.9525 30.06 27.8725C31.53 25.7375 32.23 24.985 33 24.075Z" fill="#F24822"/>
</svg>
