<svg width="24" height="24" viewBox="0 0 24 24" fill="none" xmlns="http://www.w3.org/2000/svg">
<path opacity="0.5" fill-rule="evenodd" clip-rule="evenodd" d="M4.64521 4.24665V4.58829C4.64521 4.86911 4.76756 5.13843 4.98535 5.33699C5.20313 5.53556 5.49851 5.64712 5.8065 5.64712C6.1145 5.64712 6.40987 5.53556 6.62766 5.33699C6.84544 5.13843 6.96779 4.86911 6.96779 4.58829V4.23535H17.0323V4.58829C17.0323 4.86911 17.1547 5.13843 17.3724 5.33699C17.5902 5.53556 17.8856 5.64712 18.1936 5.64712C18.5016 5.64712 18.797 5.53556 19.0148 5.33699C19.2325 5.13843 19.3549 4.86911 19.3549 4.58829V4.24665C19.5262 4.25229 19.6821 4.26029 19.8225 4.27065C20.2684 4.30312 20.4806 4.36241 20.6199 4.42735C20.9853 4.59676 21.2811 4.86641 21.4669 5.19959C21.5381 5.32665 21.6031 5.52006 21.6388 5.92523C21.6759 6.34312 21.6775 6.88523 21.6775 7.69418V8.47065H2.32263V7.69418C2.32263 6.88665 2.32263 6.34312 2.36134 5.92523C2.39695 5.52006 2.46199 5.32665 2.53321 5.19959C2.71888 4.867 3.0154 4.59663 3.38018 4.42735C3.51954 4.36241 3.73166 4.30312 4.17605 4.27065C4.33219 4.25904 4.48863 4.25104 4.64521 4.24665ZM9.67747 5.29418C9.36948 5.29418 9.0741 5.40573 8.85632 5.6043C8.63853 5.80287 8.51618 6.07218 8.51618 6.353C8.51618 6.63382 8.63853 6.90313 8.85632 7.1017C9.0741 7.30027 9.36948 7.41182 9.67747 7.41182H14.3226C14.6306 7.41182 14.926 7.30027 15.1438 7.1017C15.3616 6.90313 15.4839 6.63382 15.4839 6.353C15.4839 6.07218 15.3616 5.80287 15.1438 5.6043C14.926 5.40573 14.6306 5.29418 14.3226 5.29418H9.67747Z" fill="#B3B3B3"/>
<path d="M6.58063 15.1764C7.09395 15.1764 7.58625 14.9905 7.94922 14.6595C8.31219 14.3286 8.51611 13.8797 8.51611 13.4117C8.51611 12.9436 8.31219 12.4948 7.94922 12.1638C7.58625 11.8329 7.09395 11.647 6.58063 11.647C6.0673 11.647 5.57501 11.8329 5.21203 12.1638C4.84906 12.4948 4.64514 12.9436 4.64514 13.4117C4.64514 13.8797 4.84906 14.3286 5.21203 14.6595C5.57501 14.9905 6.0673 15.1764 6.58063 15.1764ZM6.58063 20.1176C7.09395 20.1176 7.58625 19.9316 7.94922 19.6007C8.31219 19.2697 8.51611 18.8209 8.51611 18.3529C8.51611 17.8848 8.31219 17.436 7.94922 17.105C7.58625 16.7741 7.09395 16.5881 6.58063 16.5881C6.0673 16.5881 5.57501 16.7741 5.21203 17.105C4.84906 17.436 4.64514 17.8848 4.64514 18.3529C4.64514 18.8209 4.84906 19.2697 5.21203 19.6007C5.57501 19.9316 6.0673 20.1176 6.58063 20.1176ZM13.9355 13.4117C13.9355 13.8797 13.7315 14.3286 13.3686 14.6595C13.0056 14.9905 12.5133 15.1764 12 15.1764C11.4867 15.1764 10.9944 14.9905 10.6314 14.6595C10.2684 14.3286 10.0645 13.8797 10.0645 13.4117C10.0645 12.9436 10.2684 12.4948 10.6314 12.1638C10.9944 11.8329 11.4867 11.647 12 11.647C12.5133 11.647 13.0056 11.8329 13.3686 12.1638C13.7315 12.4948 13.9355 12.9436 13.9355 13.4117ZM12 20.1176C12.5133 20.1176 13.0056 19.9316 13.3686 19.6007C13.7315 19.2697 13.9355 18.8209 13.9355 18.3529C13.9355 17.8848 13.7315 17.436 13.3686 17.105C13.0056 16.7741 12.5133 16.5881 12 16.5881C11.4867 16.5881 10.9944 16.7741 10.6314 17.105C10.2684 17.436 10.0645 17.8848 10.0645 18.3529C10.0645 18.8209 10.2684 19.2697 10.6314 19.6007C10.9944 19.9316 11.4867 20.1176 12 20.1176ZM19.3548 13.4117C19.3548 13.8797 19.1509 14.3286 18.7879 14.6595C18.425 14.9905 17.9327 15.1764 17.4193 15.1764C16.906 15.1764 16.4137 14.9905 16.0507 14.6595C15.6878 14.3286 15.4839 13.8797 15.4839 13.4117C15.4839 12.9436 15.6878 12.4948 16.0507 12.1638C16.4137 11.8329 16.906 11.647 17.4193 11.647C17.9327 11.647 18.425 11.8329 18.7879 12.1638C19.1509 12.4948 19.3548 12.9436 19.3548 13.4117Z" fill="#B3B3B3"/>
<path fill-rule="evenodd" clip-rule="evenodd" d="M5.80645 0C6.11444 0 6.40982 0.111554 6.62761 0.310122C6.84539 0.50869 6.96774 0.778006 6.96774 1.05882V2.11765H17.0323V1.05882C17.0323 0.778006 17.1546 0.50869 17.3724 0.310122C17.5902 0.111554 17.8856 0 18.1935 0C18.5015 0 18.7969 0.111554 19.0147 0.310122C19.2325 0.50869 19.3548 0.778006 19.3548 1.05882V2.12894C19.5902 2.13459 19.8095 2.14494 20.0129 2.16C20.6013 2.20235 21.1525 2.29835 21.6743 2.54118C22.4757 2.91342 23.1272 3.50745 23.5355 4.23812C23.8018 4.71388 23.9071 5.21647 23.9535 5.75294C24 6.26824 24 6.89647 24 7.65176V18.4659C24 19.2212 24 19.8494 23.9535 20.3647C23.9071 20.9012 23.8018 21.4038 23.5355 21.8795C23.1276 22.61 22.4767 23.204 21.6759 23.5765C21.1525 23.8193 20.6013 23.9153 20.0129 23.9576C19.4477 24 18.7587 24 17.9319 24H6.06968C5.24129 24 4.55226 24 3.9871 23.9576C3.39871 23.9153 2.84748 23.8193 2.32568 23.5765C1.52478 23.205 0.873306 22.612 0.464516 21.8824C0.198194 21.4052 0.0929035 20.9026 0.0464519 20.3661C3.25903e-07 19.8508 0 19.2226 0 18.4687V7.65176C0 6.89647 3.25903e-07 6.26824 0.0464519 5.75294C0.0929035 5.21647 0.198194 4.71388 0.464516 4.23812C0.87278 3.50745 1.5243 2.91342 2.32568 2.54118C2.84748 2.29835 3.39871 2.20235 3.9871 2.16C4.19045 2.14494 4.40981 2.13459 4.64516 2.12894V1.05882C4.64516 0.919777 4.6752 0.782092 4.73356 0.653629C4.79192 0.525167 4.87746 0.408443 4.98529 0.310122C5.09313 0.211801 5.22115 0.133809 5.36204 0.080598C5.50294 0.0273872 5.65395 0 5.80645 0ZM4.64516 4.58824V4.24659C4.48858 4.25098 4.33214 4.25898 4.176 4.27059C3.73161 4.30306 3.51948 4.36235 3.38013 4.42729C3.01535 4.59658 2.71883 4.86694 2.53316 5.19953C2.46194 5.32659 2.3969 5.52 2.36129 5.92518C2.32413 6.34306 2.32258 6.88518 2.32258 7.69412V8.47059H21.6774V7.69412C21.6774 6.88659 21.6774 6.34306 21.6387 5.92518C21.6031 5.52 21.5381 5.32659 21.4668 5.19953C21.2812 4.86694 20.9846 4.59658 20.6199 4.42729C20.4805 4.36235 20.2684 4.30306 19.8225 4.27059C19.6668 4.25901 19.5109 4.251 19.3548 4.24659V4.58824C19.3548 4.86905 19.2325 5.13837 19.0147 5.33694C18.7969 5.5355 18.5015 5.64706 18.1935 5.64706C17.8856 5.64706 17.5902 5.5355 17.3724 5.33694C17.1546 5.13837 17.0323 4.86905 17.0323 4.58824V4.23529H6.96774V4.58824C6.96774 4.86905 6.84539 5.13837 6.62761 5.33694C6.40982 5.5355 6.11444 5.64706 5.80645 5.64706C5.49846 5.64706 5.20308 5.5355 4.98529 5.33694C4.76751 5.13837 4.64516 4.86905 4.64516 4.58824ZM21.6774 9.88235H2.32258V18.4235C2.32258 19.2311 2.32258 19.7746 2.36129 20.1911C2.3969 20.5976 2.46194 20.7911 2.53316 20.9181C2.71897 21.2513 3.01471 21.5209 3.38013 21.6904C3.51948 21.7553 3.73161 21.8146 4.176 21.8471C4.63432 21.8809 5.2289 21.8824 6.11613 21.8824H17.8839C18.7695 21.8824 19.3657 21.8824 19.8225 21.8471C20.2684 21.8146 20.4805 21.7553 20.6199 21.6904C20.9846 21.5211 21.2812 21.2507 21.4668 20.9181C21.5381 20.7911 21.6031 20.5976 21.6387 20.1911C21.6759 19.7746 21.6774 19.2311 21.6774 18.4235V9.88235Z" fill="#B3B3B3"/>
</svg>
