<svg width="20" height="14" viewBox="0 0 20 14" fill="none" xmlns="http://www.w3.org/2000/svg">
<g opacity="0.5">
<path d="M12.45 6.75003C12.45 7.43201 12.1656 8.08606 11.6592 8.5683C11.1529 9.05054 10.4661 9.32145 9.75005 9.32145C9.03396 9.32145 8.34721 9.05054 7.84086 8.5683C7.33451 8.08606 7.05005 7.43201 7.05005 6.75003C7.05005 6.06804 7.33451 5.41399 7.84086 4.93175C8.34721 4.44951 9.03396 4.1786 9.75005 4.1786C10.4661 4.1786 11.1529 4.44951 11.6592 4.93175C12.1656 5.41399 12.45 6.06804 12.45 6.75003Z" stroke="black" stroke-width="1.5" stroke-linecap="round" stroke-linejoin="round"/>
<path d="M0.75 6.75C2.19 3.23829 5.5524 0.75 9.75 0.75C13.9476 0.75 17.31 3.23829 18.75 6.75C17.31 10.2617 13.9476 12.75 9.75 12.75C5.5524 12.75 2.19 10.2617 0.75 6.75Z" stroke="black" stroke-width="1.5" stroke-linecap="round" stroke-linejoin="round"/>
</g>
</svg>
