<svg width="12" height="14" viewBox="0 0 12 14" fill="none" xmlns="http://www.w3.org/2000/svg">
<g opacity="0.5">
<path d="M1.38514 14C1.004 14 0.678 13.8769 0.407143 13.6306C0.136286 13.3843 0.000571429 13.089 0 12.7447V5.92356C0 5.57822 0.135714 5.28267 0.407143 5.03689C0.678571 4.79111 1.00429 4.6677 1.38429 4.66667H2.57143V3.11111C2.57143 2.24467 2.90429 1.50967 3.57 0.906111C4.23514 0.302037 5.04514 0 6 0C6.95486 0 7.76514 0.302037 8.43086 0.906111C9.09657 1.51019 9.42914 2.24519 9.42857 3.11111V4.66667H10.6157C10.9963 4.66667 11.322 4.78982 11.5929 5.03611C11.8637 5.28241 11.9994 5.57796 12 5.92278V12.7439C12 13.0892 11.8643 13.3848 11.5929 13.6306C11.3214 13.8763 10.9957 13.9995 10.6157 14H1.38514ZM6.91371 10.1624C7.16171 9.93793 7.28571 9.66156 7.28571 9.33333C7.28571 9.00511 7.16171 8.72874 6.91371 8.50422C6.66571 8.2797 6.36114 8.16719 6 8.16667C5.63886 8.16615 5.33429 8.27867 5.08629 8.50422C4.83829 8.72874 4.71429 9.00511 4.71429 9.33333C4.71429 9.66156 4.83829 9.93793 5.08629 10.1624C5.33371 10.3875 5.63829 10.5 6 10.5C6.36171 10.5 6.66629 10.3875 6.91371 10.1624ZM3.42857 4.66667H8.57143V3.11111C8.57143 2.46296 8.32143 1.91204 7.82143 1.45833C7.32143 1.00463 6.71429 0.777778 6 0.777778C5.28571 0.777778 4.67857 1.00463 4.17857 1.45833C3.67857 1.91204 3.42857 2.46296 3.42857 3.11111V4.66667Z" fill="#1E1E1E"/>
</g>
</svg>
