<svg width="20" height="20" viewBox="0 0 20 20" fill="none" xmlns="http://www.w3.org/2000/svg">
<circle cx="10" cy="10" r="10" fill="#8CC7AE"/>
<path fill-rule="evenodd" clip-rule="evenodd" d="M14.7803 5.30806C14.921 5.50514 15 5.7724 15 6.05108C15 6.32976 14.921 6.59702 14.7803 6.7941L9.15573 14.6714C9.0814 14.7755 8.99315 14.8581 8.89603 14.9144C8.7989 14.9708 8.6948 14.9998 8.58967 14.9998C8.48454 14.9998 8.38044 14.9708 8.28331 14.9144C8.18619 14.8581 8.09794 14.7755 8.02361 14.6714L5.22909 10.7583C5.15742 10.6614 5.10025 10.5454 5.06092 10.4172C5.0216 10.2889 5.00089 10.151 5.00003 10.0115C4.99916 9.87195 5.01815 9.73356 5.05588 9.6044C5.09361 9.47524 5.14933 9.3579 5.21979 9.25923C5.29025 9.16055 5.37403 9.08251 5.46625 9.02967C5.55848 8.97683 5.65729 8.95024 5.75693 8.95145C5.85657 8.95266 5.95504 8.98165 6.04659 9.03673C6.13814 9.09181 6.22095 9.17188 6.29017 9.27225L8.58942 12.4924L13.7187 5.30806C13.7884 5.21039 13.8711 5.13292 13.9622 5.08006C14.0533 5.02721 14.1509 5 14.2495 5C14.3481 5 14.4457 5.02721 14.5368 5.08006C14.6279 5.13292 14.7106 5.21039 14.7803 5.30806Z" fill="white"/>
</svg>
