<svg width="86" height="20" viewBox="0 0 86 20" fill="none" xmlns="http://www.w3.org/2000/svg">
<path d="M13.4814 9.79688L12.9336 14.9102H0V14.5127H0.483398C0.905924 14.5127 1.24609 14.4375 1.50391 14.2871C1.6901 14.1868 1.83333 14.015 1.93359 13.7715C2.01237 13.5996 2.05176 13.1484 2.05176 12.418V2.83594C2.05176 2.09115 2.01237 1.62565 1.93359 1.43945C1.85482 1.25326 1.69368 1.09212 1.4502 0.956055C1.21387 0.812826 0.891602 0.741211 0.483398 0.741211H0V0.34375H7.7666V0.741211H7.13281C6.71029 0.741211 6.37012 0.816406 6.1123 0.966797C5.92611 1.06706 5.7793 1.23893 5.67188 1.48242C5.5931 1.6543 5.55371 2.10547 5.55371 2.83594V12.1172C5.55371 12.862 5.59668 13.3382 5.68262 13.5459C5.76855 13.7464 5.93685 13.8968 6.1875 13.9971C6.36654 14.0615 6.7998 14.0938 7.4873 14.0938H8.70117C9.47461 14.0938 10.1191 13.9577 10.6348 13.6855C11.1504 13.4134 11.5944 12.9837 11.9668 12.3965C12.3464 11.8092 12.7044 10.9427 13.041 9.79688H13.4814ZM17.4238 0C17.8893 0 18.2832 0.164714 18.6055 0.494141C18.9277 0.816406 19.0889 1.20671 19.0889 1.66504C19.0889 2.12337 18.9242 2.51367 18.5947 2.83594C18.2725 3.1582 17.8822 3.31934 17.4238 3.31934C16.9655 3.31934 16.5752 3.1582 16.2529 2.83594C15.9307 2.51367 15.7695 2.12337 15.7695 1.66504C15.7695 1.20671 15.9307 0.816406 16.2529 0.494141C16.5752 0.164714 16.9655 0 17.4238 0ZM18.9277 4.86621V12.8262C18.9277 13.5352 19.0101 13.9899 19.1748 14.1904C19.3395 14.3838 19.6618 14.4948 20.1416 14.5234V14.9102H14.7168V14.5234C15.1608 14.5091 15.4902 14.3802 15.7051 14.1367C15.8483 13.972 15.9199 13.5352 15.9199 12.8262V6.96094C15.9199 6.25195 15.8376 5.80078 15.6729 5.60742C15.5081 5.4069 15.1895 5.29232 14.7168 5.26367V4.86621H18.9277ZM25.5342 5.91895V12.8906C25.5342 13.5638 25.6058 13.9863 25.749 14.1582C25.9782 14.4232 26.4007 14.5449 27.0166 14.5234V14.9102H21.0977V14.5234C21.5488 14.5163 21.8675 14.4661 22.0537 14.373C22.2471 14.2728 22.3796 14.1367 22.4512 13.9648C22.5228 13.793 22.5586 13.4349 22.5586 12.8906V5.91895H21.0977V4.86621H22.5586V4.125L22.5479 3.62012C22.5479 2.58887 22.9238 1.72949 23.6758 1.04199C24.4349 0.354492 25.459 0.0107422 26.748 0.0107422C27.6289 0.0107422 28.2806 0.175456 28.7031 0.504883C29.1328 0.83431 29.3477 1.19954 29.3477 1.60059C29.3477 1.92285 29.2152 2.20215 28.9502 2.43848C28.6852 2.6748 28.3343 2.79297 27.8975 2.79297C27.5251 2.79297 27.2279 2.69629 27.0059 2.50293C26.791 2.30957 26.6836 2.09473 26.6836 1.8584C26.6836 1.79395 26.7051 1.66146 26.748 1.46094C26.7767 1.33919 26.791 1.22461 26.791 1.11719C26.791 0.966797 26.748 0.855794 26.6621 0.78418C26.5475 0.676758 26.4079 0.623047 26.2432 0.623047C26.0355 0.623047 25.86 0.708984 25.7168 0.880859C25.5807 1.05273 25.5127 1.32845 25.5127 1.70801L25.5342 3.58789V4.86621H27.0166V5.91895H25.5342ZM36.9639 9.52832H31.4531C31.5176 10.8604 31.8721 11.9131 32.5166 12.6865C33.0107 13.2809 33.6051 13.5781 34.2998 13.5781C34.7295 13.5781 35.1198 13.46 35.4707 13.2236C35.8216 12.9801 36.1976 12.5469 36.5986 11.9238L36.9639 12.1602C36.4196 13.2702 35.818 14.0579 35.1592 14.5234C34.5003 14.9818 33.7376 15.2109 32.8711 15.2109C31.3815 15.2109 30.2536 14.638 29.4873 13.4922C28.8714 12.5684 28.5635 11.4225 28.5635 10.0547C28.5635 8.37891 29.0146 7.04688 29.917 6.05859C30.8265 5.06315 31.89 4.56543 33.1074 4.56543C34.1243 4.56543 35.0052 4.98438 35.75 5.82227C36.502 6.65299 36.9066 7.88835 36.9639 9.52832ZM34.3213 8.80859C34.3213 7.6556 34.2568 6.86426 34.1279 6.43457C34.0062 6.00488 33.8128 5.67904 33.5479 5.45703C33.3975 5.32812 33.1969 5.26367 32.9463 5.26367C32.5739 5.26367 32.2695 5.44629 32.0332 5.81152C31.6107 6.44889 31.3994 7.32259 31.3994 8.43262V8.80859H34.3213ZM37.7803 14.9102V14.5127H38.2637C38.6862 14.5127 39.0085 14.4482 39.2305 14.3193C39.4596 14.1833 39.6279 14.0007 39.7354 13.7715C39.7998 13.6211 39.832 13.1699 39.832 12.418V2.83594C39.832 2.09115 39.7926 1.62565 39.7139 1.43945C39.6351 1.25326 39.474 1.09212 39.2305 0.956055C38.9941 0.812826 38.6719 0.741211 38.2637 0.741211H37.7803V0.34375H44.3008C46.041 0.34375 47.4411 0.580078 48.501 1.05273C49.7972 1.63281 50.7783 2.51009 51.4443 3.68457C52.1175 4.85905 52.4541 6.1875 52.4541 7.66992C52.4541 8.69401 52.2894 9.63932 51.96 10.5059C51.6305 11.3652 51.2044 12.0778 50.6816 12.6436C50.1589 13.2021 49.5537 13.6533 48.8662 13.9971C48.1859 14.3337 47.3516 14.5951 46.3633 14.7812C45.9264 14.8672 45.2389 14.9102 44.3008 14.9102H37.7803ZM43.334 1.1709V12.5361C43.334 13.1377 43.3626 13.5065 43.4199 13.6426C43.4772 13.7786 43.5739 13.8825 43.71 13.9541C43.9033 14.0615 44.1826 14.1152 44.5479 14.1152C45.7438 14.1152 46.6569 13.707 47.2871 12.8906C48.1465 11.7878 48.5762 10.0762 48.5762 7.75586C48.5762 5.88672 48.2826 4.39355 47.6953 3.27637C47.2298 2.40267 46.6318 1.80827 45.9014 1.49316C45.3857 1.27116 44.5299 1.16374 43.334 1.1709ZM58.2979 4.86621V7.14355C58.9639 6.10514 59.5475 5.41764 60.0488 5.08105C60.5501 4.7373 61.0335 4.56543 61.499 4.56543C61.9001 4.56543 62.2188 4.69076 62.4551 4.94141C62.6986 5.1849 62.8203 5.53223 62.8203 5.9834C62.8203 6.46322 62.7021 6.83561 62.4658 7.10059C62.2367 7.36556 61.9574 7.49805 61.6279 7.49805C61.2484 7.49805 60.9189 7.3763 60.6396 7.13281C60.3604 6.88932 60.1956 6.75326 60.1455 6.72461C60.0739 6.68164 59.9915 6.66016 59.8984 6.66016C59.6908 6.66016 59.4938 6.73893 59.3076 6.89648C59.014 7.13997 58.792 7.4873 58.6416 7.93848C58.4124 8.63314 58.2979 9.39941 58.2979 10.2373V12.5469L58.3086 13.1484C58.3086 13.5566 58.3337 13.818 58.3838 13.9326C58.4697 14.126 58.5951 14.2692 58.7598 14.3623C58.9316 14.4482 59.2181 14.502 59.6191 14.5234V14.9102H54.1943V14.5234C54.6312 14.4876 54.9248 14.3695 55.0752 14.1689C55.2327 13.9613 55.3115 13.4206 55.3115 12.5469V6.99316C55.3115 6.42025 55.2829 6.05501 55.2256 5.89746C55.154 5.69694 55.0501 5.55013 54.9141 5.45703C54.778 5.36393 54.5381 5.29948 54.1943 5.26367V4.86621H58.2979ZM68.2344 4.56543C69.1081 4.56543 69.9209 4.79102 70.6729 5.24219C71.4248 5.69336 71.9941 6.33431 72.3809 7.16504C72.7747 7.99577 72.9717 8.90527 72.9717 9.89355C72.9717 11.3187 72.61 12.5111 71.8867 13.4707C71.013 14.6309 69.8063 15.2109 68.2666 15.2109C66.7555 15.2109 65.5918 14.681 64.7754 13.6211C63.959 12.5612 63.5508 11.333 63.5508 9.93652C63.5508 8.49707 63.9661 7.24382 64.7969 6.17676C65.6348 5.10254 66.7806 4.56543 68.2344 4.56543ZM68.2773 5.32812C67.9121 5.32812 67.597 5.46777 67.332 5.74707C67.0742 6.01921 66.9023 6.56348 66.8164 7.37988C66.7376 8.18913 66.6982 9.31706 66.6982 10.7637C66.6982 11.5299 66.7484 12.2461 66.8486 12.9121C66.9274 13.4206 67.0957 13.8073 67.3535 14.0723C67.6113 14.3372 67.9049 14.4697 68.2344 14.4697C68.5566 14.4697 68.8252 14.3802 69.04 14.2012C69.3193 13.9577 69.5055 13.6175 69.5986 13.1807C69.7419 12.5003 69.8135 11.1253 69.8135 9.05566C69.8135 7.83822 69.7454 7.00391 69.6094 6.55273C69.4733 6.0944 69.2728 5.76139 69.0078 5.55371C68.8216 5.40332 68.5781 5.32812 68.2773 5.32812ZM78.3857 13.8896V17.6279C78.3857 18.1436 78.4251 18.4945 78.5039 18.6807C78.5898 18.8669 78.7188 19.0029 78.8906 19.0889C79.0625 19.1748 79.3991 19.2178 79.9004 19.2178V19.6152H74.1748V19.2178C74.6188 19.2035 74.9482 19.0781 75.1631 18.8418C75.3063 18.6771 75.3779 18.251 75.3779 17.5635V6.96094C75.3779 6.25195 75.2956 5.80078 75.1309 5.60742C74.9661 5.4069 74.6475 5.29232 74.1748 5.26367V4.86621H78.3857V6.1875C78.7367 5.67188 79.0947 5.29948 79.46 5.07031C79.9827 4.73372 80.5521 4.56543 81.168 4.56543C81.9056 4.56543 82.5752 4.79818 83.1768 5.26367C83.7855 5.72917 84.2474 6.3737 84.5625 7.19727C84.8776 8.01367 85.0352 8.89453 85.0352 9.83984C85.0352 10.8568 84.8704 11.7878 84.541 12.6328C84.2188 13.4707 83.7461 14.1117 83.123 14.5557C82.5072 14.9925 81.8197 15.2109 81.0605 15.2109C80.5091 15.2109 79.9935 15.0892 79.5137 14.8457C79.1556 14.6595 78.7796 14.3408 78.3857 13.8896ZM78.3857 12.8047C79.0016 13.6784 79.6605 14.1152 80.3623 14.1152C80.749 14.1152 81.0677 13.9111 81.3184 13.5029C81.6908 12.9014 81.877 11.7555 81.877 10.0654C81.877 8.33236 81.6729 7.14714 81.2646 6.50977C80.9925 6.08724 80.6273 5.87598 80.1689 5.87598C79.4456 5.87598 78.8512 6.39876 78.3857 7.44434V12.8047Z" fill="black"/>
</svg>
