<svg width="20" height="20" viewBox="0 0 20 20" fill="none" xmlns="http://www.w3.org/2000/svg">
<g opacity="0.5">
<path d="M4.26317 16.6667C3.87928 16.6667 3.559 16.5383 3.30234 16.2817C3.04567 16.025 2.91706 15.7044 2.9165 15.32V4.68C2.9165 4.29611 3.04512 3.97583 3.30234 3.71917C3.55956 3.4625 3.87956 3.33389 4.26234 3.33333H12.019V4.16667H4.26317C4.13484 4.16667 4.01706 4.22 3.90984 4.32667C3.80261 4.43333 3.74928 4.55111 3.74984 4.68V15.3208C3.74984 15.4486 3.80317 15.5661 3.90984 15.6733C4.0165 15.7806 4.134 15.8339 4.26234 15.8333H14.904C15.0318 15.8333 15.1493 15.78 15.2565 15.6733C15.3637 15.5667 15.4171 15.4492 15.4165 15.3208V7.56417H16.2498V15.3208C16.2498 15.7042 16.1215 16.0244 15.8648 16.2817C15.6082 16.5389 15.2876 16.6672 14.9032 16.6667H4.26317ZM6.6665 13.75V12.9167H12.4998V13.75H6.6665ZM6.6665 11.25V10.4167H12.4998V11.25H6.6665ZM6.6665 8.75V7.91667H12.4998V8.75H6.6665ZM14.5832 6.66667V5H12.9165V4.16667H14.5832V2.5H15.4165V4.16667H17.0832V5H15.4165V6.66667H14.5832Z" fill="black"/>
</g>
</svg>
