<svg width="24" height="24" viewBox="0 0 24 24" fill="none" xmlns="http://www.w3.org/2000/svg">
<g opacity="0.7">
<path opacity="0.7" d="M2.99998 17.5001H21C21.142 17.5001 21.2607 17.5481 21.356 17.6441C21.4513 17.7401 21.4993 17.8591 21.5 18.0011C21.5007 18.1431 21.4527 18.2617 21.356 18.3571C21.2593 18.4524 21.1406 18.5001 21 18.5001H2.99998C2.85798 18.5001 2.73932 18.4521 2.64398 18.3561C2.54865 18.2601 2.50065 18.1411 2.49998 17.9991C2.49932 17.8571 2.54732 17.7384 2.64398 17.6431C2.74065 17.5477 2.85932 17.5001 2.99998 17.5001ZM3.99998 10.8341L3.25598 12.1461C3.19665 12.2547 3.10832 12.3237 2.99098 12.3531C2.87232 12.3831 2.75898 12.3684 2.65098 12.3091C2.54365 12.2491 2.47532 12.1601 2.44598 12.0421C2.41665 11.9227 2.43265 11.8101 2.49398 11.7041L3.23798 10.3921H1.74998C1.62198 10.3921 1.51632 10.3504 1.43298 10.2671C1.34965 10.1837 1.30798 10.0784 1.30798 9.95105C1.30798 9.82372 1.34965 9.71805 1.43298 9.63405C1.51632 9.55005 1.62198 9.50805 1.74998 9.50805H3.23898L2.49398 8.24605C2.43265 8.13939 2.41665 8.02672 2.44598 7.90805C2.47532 7.78939 2.54398 7.70039 2.65198 7.64105C2.75998 7.58172 2.87298 7.56705 2.99098 7.59705C3.10898 7.62705 3.19732 7.69605 3.25598 7.80405L3.99998 9.06505L4.74398 7.80405C4.80332 7.69539 4.89198 7.62605 5.00998 7.59605C5.12798 7.56605 5.24065 7.58105 5.34798 7.64105C5.45532 7.70105 5.52398 7.79005 5.55398 7.90805C5.58398 8.02605 5.56798 8.13872 5.50598 8.24605L4.75998 9.50805H6.24998C6.37798 9.50805 6.48365 9.54972 6.56698 9.63305C6.65032 9.71639 6.69198 9.82172 6.69198 9.94905C6.69198 10.0764 6.65032 10.1821 6.56698 10.2661C6.48365 10.3501 6.37798 10.3921 6.24998 10.3921H4.76098L5.50598 11.7041C5.56732 11.8107 5.58332 11.9234 5.55398 12.0421C5.52465 12.1607 5.45598 12.2497 5.34798 12.3091C5.24065 12.3684 5.12798 12.3831 5.00998 12.3531C4.89198 12.3237 4.80332 12.2547 4.74398 12.1461L3.99998 10.8341ZM12 10.8341L11.256 12.1461C11.1966 12.2547 11.108 12.3237 10.99 12.3531C10.872 12.3831 10.7593 12.3684 10.652 12.3091C10.544 12.2491 10.4753 12.1601 10.446 12.0421C10.4167 11.9227 10.4327 11.8101 10.494 11.7041L11.238 10.3921H9.74998C9.62198 10.3921 9.51632 10.3504 9.43298 10.2671C9.34965 10.1837 9.30798 10.0784 9.30798 9.95105C9.30798 9.82372 9.34965 9.71805 9.43298 9.63405C9.51632 9.55005 9.62198 9.50805 9.74998 9.50805H11.239L10.494 8.24605C10.4327 8.13939 10.4167 8.02672 10.446 7.90805C10.4753 7.78939 10.544 7.70039 10.652 7.64105C10.76 7.58172 10.873 7.56705 10.991 7.59705C11.109 7.62705 11.1973 7.69605 11.256 7.80405L12 9.06505L12.744 7.80405C12.8033 7.69539 12.892 7.62605 13.01 7.59605C13.128 7.56605 13.2407 7.58105 13.348 7.64105C13.456 7.70105 13.5247 7.79005 13.554 7.90805C13.5833 8.02605 13.5673 8.13872 13.506 8.24605L12.762 9.50805H14.25C14.378 9.50805 14.4837 9.54972 14.567 9.63305C14.6503 9.71639 14.692 9.82172 14.692 9.94905C14.692 10.0764 14.6503 10.1821 14.567 10.2661C14.4837 10.3501 14.378 10.3921 14.25 10.3921H12.761L13.506 11.7041C13.5673 11.8107 13.5833 11.9234 13.554 12.0421C13.5247 12.1607 13.456 12.2497 13.348 12.3091C13.24 12.3684 13.127 12.3831 13.009 12.3531C12.891 12.3231 12.8027 12.2541 12.744 12.1461L12 10.8341ZM20 10.8341L19.256 12.1461C19.1966 12.2547 19.108 12.3237 18.99 12.3531C18.872 12.3831 18.7593 12.3684 18.652 12.3091C18.544 12.2491 18.4753 12.1601 18.446 12.0421C18.4166 11.9227 18.4326 11.8101 18.494 11.7041L19.238 10.3921H17.75C17.622 10.3921 17.5163 10.3504 17.433 10.2671C17.3496 10.1837 17.308 10.0784 17.308 9.95105C17.308 9.82372 17.3496 9.71805 17.433 9.63405C17.5163 9.55005 17.622 9.50805 17.75 9.50805H19.239L18.494 8.24605C18.4326 8.13939 18.4166 8.02672 18.446 7.90805C18.4753 7.78939 18.544 7.70039 18.652 7.64105C18.76 7.58172 18.8727 7.56705 18.99 7.59705C19.1073 7.62705 19.196 7.69605 19.256 7.80405L20 9.06505L20.744 7.80405C20.8033 7.69539 20.892 7.62605 21.01 7.59605C21.128 7.56605 21.2406 7.58105 21.348 7.64105C21.4553 7.70105 21.524 7.79005 21.554 7.90805C21.584 8.02605 21.568 8.13872 21.506 8.24605L20.762 9.50805H22.25C22.378 9.50805 22.4836 9.54972 22.567 9.63305C22.6503 9.71639 22.692 9.82172 22.692 9.94905C22.692 10.0764 22.6503 10.1821 22.567 10.2661C22.4836 10.3501 22.378 10.3921 22.25 10.3921H20.761L21.506 11.7041C21.5673 11.8107 21.5833 11.9234 21.554 12.0421C21.5247 12.1607 21.456 12.2497 21.348 12.3091C21.24 12.3684 21.1273 12.3831 21.01 12.3531C20.8927 12.3231 20.804 12.2541 20.744 12.1461L20 10.8341Z" fill="black"/>
</g>
</svg>
