<svg width="21" height="21" viewBox="0 0 21 21" fill="none" xmlns="http://www.w3.org/2000/svg">
<path opacity="0.5" d="M19.0556 3.5C19.5713 3.5 20.0658 3.70486 20.4305 4.06951C20.7951 4.43417 21 4.92875 21 5.44444V19.0556C21 19.5713 20.7951 20.0658 20.4305 20.4305C20.0658 20.7951 19.5713 21 19.0556 21H5.44444C4.92875 21 4.43417 20.7951 4.06951 20.4305C3.70486 20.0658 3.5 19.5713 3.5 19.0556V5.44444C3.5 4.92875 3.70486 4.43417 4.06951 4.06951C4.43417 3.70486 4.92875 3.5 5.44444 3.5H19.0556ZM18.5694 18.5694V13.4167C18.5694 12.5761 18.2355 11.7699 17.6411 11.1755C17.0467 10.5811 16.2406 10.2472 15.4 10.2472C14.5736 10.2472 13.6111 10.7528 13.1444 11.5111V10.4319H10.4319V18.5694H13.1444V13.7764C13.1444 13.0278 13.7472 12.4153 14.4958 12.4153C14.8568 12.4153 15.203 12.5587 15.4583 12.8139C15.7135 13.0692 15.8569 13.4154 15.8569 13.7764V18.5694H18.5694ZM7.27222 8.90556C7.70541 8.90556 8.12085 8.73347 8.42716 8.42716C8.73347 8.12085 8.90556 7.70541 8.90556 7.27222C8.90556 6.36806 8.17639 5.62917 7.27222 5.62917C6.83646 5.62917 6.41854 5.80227 6.11041 6.11041C5.80227 6.41854 5.62917 6.83646 5.62917 7.27222C5.62917 8.17639 6.36806 8.90556 7.27222 8.90556ZM8.62361 18.5694V10.4319H5.93056V18.5694H8.62361Z" fill="black"/>
</svg>
