<svg width="72" height="69" viewBox="0 0 72 69" fill="none" xmlns="http://www.w3.org/2000/svg">
<path d="M57.0059 39.0046V48.0046H66.0059V54.0046H57.0059V63.0046H51.0059V54.0046H42.0059V48.0046H51.0059V39.0046H57.0059ZM60.7349 11.2756C63.83 14.37 65.6917 18.486 65.9717 22.8537C66.2516 27.2213 64.9307 31.5414 62.2559 35.0056C58.8527 33.2501 54.9783 32.6258 51.196 33.2232C47.4136 33.8206 43.9202 35.6087 41.2238 38.3276C38.5273 41.0465 36.7681 44.5545 36.202 48.3417C35.6359 52.129 36.2924 55.998 38.0759 59.3866L36.0059 61.4596L10.5689 35.9836C7.50669 32.5515 5.87453 28.0773 6.00753 23.4795C6.14053 18.8818 8.0286 14.5094 11.2841 11.2601C14.5396 8.0107 18.9156 6.1309 23.5135 6.00658C28.1115 5.88227 32.5826 7.52287 36.0089 10.5916C39.4373 7.52455 43.9098 5.88646 48.508 6.01366C53.1063 6.14087 57.4814 8.02371 60.7349 11.2756Z" fill="#F24822"/>
</svg>
