<svg width="69" height="69" viewBox="0 0 69 69" fill="none" xmlns="http://www.w3.org/2000/svg">
<path d="M34.5 8.92976L33.0395 10.5168C33.4374 10.8824 33.9581 11.0854 34.4986 11.0854C35.039 11.0854 35.5597 10.8824 35.9576 10.5168L34.5 8.92976ZM30.452 23.5635C28.4683 22.1174 26.3494 20.3579 24.7509 18.5035C23.1006 16.5916 22.2812 14.8983 22.2812 13.5556H17.9688C17.9688 16.4795 19.6305 19.1734 21.4849 21.321C23.391 23.529 25.8003 25.5099 27.9105 27.048L30.452 23.5635ZM22.2812 13.5556C22.2812 10.511 23.7762 8.77451 25.576 8.17076C27.4505 7.53826 30.245 7.94651 33.0395 10.5168L35.9576 7.34276C32.2863 3.96751 27.899 2.84051 24.2018 4.08251C20.4269 5.35326 17.9688 8.90101 17.9688 13.5556H22.2812ZM41.0895 27.048C43.1997 25.5128 45.609 23.529 47.5151 21.321C49.3695 19.1734 51.0312 16.4795 51.0312 13.5556H46.7188C46.7188 14.8983 45.9023 16.5916 44.2491 18.5035C42.6506 20.3579 40.5346 22.1174 38.5509 23.5635L41.0895 27.048ZM51.0312 13.5556C51.0312 8.90101 48.5731 5.35326 44.8011 4.08251C41.1039 2.84051 36.7138 3.96751 33.0424 7.34276L35.9605 10.5168C38.755 7.94651 41.5524 7.53826 43.4269 8.17076C45.2237 8.77451 46.7188 10.511 46.7188 13.5556H51.0312ZM27.9105 27.048C30.0811 28.6293 31.8033 29.9748 34.5 29.9748V25.6623C33.4506 25.6623 32.8756 25.3316 30.452 23.5635L27.9105 27.048ZM38.548 23.5635C36.1244 25.3316 35.5494 25.6623 34.5 25.6623V29.9748C37.1968 29.9748 38.9189 28.6321 41.0895 27.048L38.548 23.5635Z" fill="#008770"/>
<path d="M14.375 58.6155H20.8725C23.7763 58.6155 26.7174 58.9203 29.5435 59.501C34.5895 60.5344 39.7805 60.6494 44.8672 59.8403C47.3627 59.4378 49.8122 58.8196 52.0317 57.7501C54.0327 56.7813 56.4851 55.4214 58.1325 53.8948C59.777 52.371 61.4905 49.8784 62.7037 47.9291C63.7502 46.2559 63.2442 44.206 61.594 42.9611C60.6662 42.2879 59.5491 41.9253 58.4027 41.9253C57.2564 41.9253 56.1393 42.2879 55.2115 42.9611L50.0164 46.8855C48.0039 48.4093 45.8045 49.8094 43.1854 50.2263C42.8691 50.2761 42.5385 50.3211 42.1935 50.3614M42.1935 50.3614L41.8772 50.3959M42.1935 50.3614C42.6536 50.2367 43.0754 49.9996 43.4211 49.6714C43.855 49.2971 44.2094 48.8394 44.4633 48.3257C44.7172 47.8119 44.8654 47.2524 44.8992 46.6803C44.933 46.1083 44.8516 45.5352 44.66 44.9951C44.4683 44.4551 44.1702 43.9589 43.7834 43.5361C43.4087 43.1202 42.9724 42.7644 42.4896 42.481C34.4483 37.6826 21.9334 41.3368 14.375 46.6986M42.1935 50.3614C42.0897 50.3846 41.9836 50.3961 41.8772 50.3959M41.8772 50.3959C40.1434 50.5697 38.3966 50.5735 36.662 50.4074" stroke="#008770" stroke-width="1.5" stroke-linecap="round"/>
<path d="M14.375 44.5625C14.375 42.1808 12.4442 40.25 10.0625 40.25C7.68077 40.25 5.75 42.1808 5.75 44.5625V58.9375C5.75 61.3192 7.68077 63.25 10.0625 63.25C12.4442 63.25 14.375 61.3192 14.375 58.9375V44.5625Z" stroke="#008770" stroke-width="1.5"/>
</svg>
