<svg width="152" height="152" viewBox="0 0 152 152" fill="none" xmlns="http://www.w3.org/2000/svg">
<path d="M64.8723 103.322L38 76.4433L46.9553 67.488L64.8723 85.3987L100.694 49.571L109.655 58.5327L64.8723 103.322Z" fill="#FCE8DF"/>
<path fill-rule="evenodd" clip-rule="evenodd" d="M6.33301 76C6.33301 37.525 37.5247 6.33334 75.9997 6.33334C114.475 6.33334 145.666 37.525 145.666 76C145.666 114.475 114.475 145.667 75.9997 145.667C37.5247 145.667 6.33301 114.475 6.33301 76ZM75.9997 133C68.5143 133 61.1023 131.526 54.1867 128.661C47.2712 125.797 40.9875 121.598 35.6946 116.305C30.4016 111.012 26.2031 104.729 23.3385 97.813C20.474 90.8974 18.9997 83.4854 18.9997 76C18.9997 68.5147 20.474 61.1026 23.3385 54.1871C26.2031 47.2715 30.4016 40.9879 35.6946 35.6949C40.9875 30.402 47.2712 26.2034 54.1867 23.3389C61.1023 20.4744 68.5143 19 75.9997 19C91.117 19 105.615 25.0054 116.305 35.6949C126.994 46.3845 133 60.8827 133 76C133 91.1174 126.994 105.616 116.305 116.305C105.615 126.995 91.117 133 75.9997 133Z" fill="#FCE8DF"/>
</svg>
