<svg width="20" height="20" viewBox="0 0 20 20" fill="none" xmlns="http://www.w3.org/2000/svg">
<g opacity="0.4">
<path d="M10.4167 13.75H9.58333C9.36232 13.75 9.15036 13.8378 8.99408 13.9941C8.8378 14.1504 8.75 14.3623 8.75 14.5833C8.75 14.8043 8.8378 15.0163 8.99408 15.1726C9.15036 15.3289 9.36232 15.4167 9.58333 15.4167H10.4167C10.6377 15.4167 10.8496 15.3289 11.0059 15.1726C11.1622 15.0163 11.25 14.8043 11.25 14.5833C11.25 14.3623 11.1622 14.1504 11.0059 13.9941C10.8496 13.8378 10.6377 13.75 10.4167 13.75ZM10.4167 10.4167H9.58333C9.36232 10.4167 9.15036 10.5045 8.99408 10.6607C8.8378 10.817 8.75 11.029 8.75 11.25C8.75 11.471 8.8378 11.683 8.99408 11.8393C9.15036 11.9955 9.36232 12.0833 9.58333 12.0833H10.4167C10.6377 12.0833 10.8496 11.9955 11.0059 11.8393C11.1622 11.683 11.25 11.471 11.25 11.25C11.25 11.029 11.1622 10.817 11.0059 10.6607C10.8496 10.5045 10.6377 10.4167 10.4167 10.4167ZM6.25 13.75H5.41667C5.19565 13.75 4.98369 13.8378 4.82741 13.9941C4.67113 14.1504 4.58333 14.3623 4.58333 14.5833C4.58333 14.8043 4.67113 15.0163 4.82741 15.1726C4.98369 15.3289 5.19565 15.4167 5.41667 15.4167H6.25C6.47101 15.4167 6.68297 15.3289 6.83926 15.1726C6.99554 15.0163 7.08333 14.8043 7.08333 14.5833C7.08333 14.3623 6.99554 14.1504 6.83926 13.9941C6.68297 13.8378 6.47101 13.75 6.25 13.75ZM6.25 10.4167H5.41667C5.19565 10.4167 4.98369 10.5045 4.82741 10.6607C4.67113 10.817 4.58333 11.029 4.58333 11.25C4.58333 11.471 4.67113 11.683 4.82741 11.8393C4.98369 11.9955 5.19565 12.0833 5.41667 12.0833H6.25C6.47101 12.0833 6.68297 11.9955 6.83926 11.8393C6.99554 11.683 7.08333 11.471 7.08333 11.25C7.08333 11.029 6.99554 10.817 6.83926 10.6607C6.68297 10.5045 6.47101 10.4167 6.25 10.4167ZM17.9167 5.41667H15.4167V2.08333C15.4167 1.86232 15.3289 1.65036 15.1726 1.49408C15.0163 1.3378 14.8043 1.25 14.5833 1.25H5.41667C5.19565 1.25 4.98369 1.3378 4.82741 1.49408C4.67113 1.65036 4.58333 1.86232 4.58333 2.08333V5.41667H2.08333C1.86232 5.41667 1.65036 5.50446 1.49408 5.66074C1.3378 5.81702 1.25 6.02899 1.25 6.25V17.9167C1.25 18.1377 1.3378 18.3496 1.49408 18.5059C1.65036 18.6622 1.86232 18.75 2.08333 18.75H17.9167C18.1377 18.75 18.3496 18.6622 18.5059 18.5059C18.6622 18.3496 18.75 18.1377 18.75 17.9167V6.25C18.75 6.02899 18.6622 5.81702 18.5059 5.66074C18.3496 5.50446 18.1377 5.41667 17.9167 5.41667ZM17.0833 17.0833H2.91667V7.08333H5.41667C5.63768 7.08333 5.84964 6.99554 6.00592 6.83926C6.1622 6.68297 6.25 6.47101 6.25 6.25V2.91667H13.75V6.25C13.75 6.47101 13.8378 6.68297 13.9941 6.83926C14.1504 6.99554 14.3623 7.08333 14.5833 7.08333H17.0833V17.0833ZM13.75 10.4167C13.529 10.4167 13.317 10.5045 13.1607 10.6607C13.0045 10.817 12.9167 11.029 12.9167 11.25C12.9167 11.471 13.0045 11.683 13.1607 11.8393C13.317 11.9955 13.529 12.0833 13.75 12.0833H14.5833C14.8043 12.0833 15.0163 11.9955 15.1726 11.8393C15.3289 11.683 15.4167 11.471 15.4167 11.25C15.4167 11.029 15.3289 10.817 15.1726 10.6607C15.0163 10.5045 14.8043 10.4167 14.5833 10.4167H13.75ZM11.25 5.83333H10.8333V5.41667C10.8333 5.19565 10.7455 4.98369 10.5893 4.82741C10.433 4.67113 10.221 4.58333 10 4.58333C9.77899 4.58333 9.56702 4.67113 9.41074 4.82741C9.25446 4.98369 9.16667 5.19565 9.16667 5.41667V5.83333H8.75C8.52899 5.83333 8.31702 5.92113 8.16074 6.07741C8.00446 6.23369 7.91667 6.44565 7.91667 6.66667C7.91667 6.88768 8.00446 7.09964 8.16074 7.25592C8.31702 7.4122 8.52899 7.5 8.75 7.5H9.16667V7.91667C9.16667 8.13768 9.25446 8.34964 9.41074 8.50592C9.56702 8.6622 9.77899 8.75 10 8.75C10.221 8.75 10.433 8.6622 10.5893 8.50592C10.7455 8.34964 10.8333 8.13768 10.8333 7.91667V7.5H11.25C11.471 7.5 11.683 7.4122 11.8393 7.25592C11.9955 7.09964 12.0833 6.88768 12.0833 6.66667C12.0833 6.44565 11.9955 6.23369 11.8393 6.07741C11.683 5.92113 11.471 5.83333 11.25 5.83333ZM14.5833 13.75H13.75C13.529 13.75 13.317 13.8378 13.1607 13.9941C13.0045 14.1504 12.9167 14.3623 12.9167 14.5833C12.9167 14.8043 13.0045 15.0163 13.1607 15.1726C13.317 15.3289 13.529 15.4167 13.75 15.4167H14.5833C14.8043 15.4167 15.0163 15.3289 15.1726 15.1726C15.3289 15.0163 15.4167 14.8043 15.4167 14.5833C15.4167 14.3623 15.3289 14.1504 15.1726 13.9941C15.0163 13.8378 14.8043 13.75 14.5833 13.75Z" fill="black"/>
</g>
</svg>
