<svg width="10" height="10" viewBox="0 0 10 10" fill="none" xmlns="http://www.w3.org/2000/svg">
<path fill-rule="evenodd" clip-rule="evenodd" d="M9.78029 0.308055C9.92097 0.505138 10 0.772405 10 1.05108C10 1.32976 9.92097 1.59702 9.78029 1.7941L4.15573 9.67136C4.0814 9.77548 3.99315 9.85807 3.89603 9.91443C3.7989 9.97078 3.6948 9.99978 3.58967 9.99978C3.48454 9.99978 3.38044 9.97078 3.28331 9.91443C3.18619 9.85807 3.09794 9.77548 3.02361 9.67136L0.229091 5.7583C0.157419 5.66136 0.100251 5.54539 0.0609233 5.41717C0.0215951 5.28895 0.000894167 5.15104 2.83329e-05 5.0115C-0.000837501 4.87195 0.0181492 4.73356 0.0558804 4.6044C0.0936116 4.47524 0.149332 4.3579 0.21979 4.25923C0.290248 4.16055 0.374032 4.08251 0.466254 4.02967C0.558477 3.97683 0.65729 3.95024 0.756929 3.95145C0.856568 3.95266 0.955036 3.98165 1.04659 4.03673C1.13814 4.09181 1.22095 4.17188 1.29017 4.27225L3.58942 7.49238L8.71871 0.308055C8.7884 0.210394 8.87115 0.132921 8.96222 0.0800635C9.0533 0.027206 9.15092 0 9.2495 0C9.34809 0 9.44571 0.027206 9.53678 0.0800635C9.62786 0.132921 9.7106 0.210394 9.78029 0.308055Z" fill="white"/>
</svg>
