<svg width="15" height="12" viewBox="0 0 15 12" fill="none" xmlns="http://www.w3.org/2000/svg">
<path d="M2.1875 3.125C2.1875 2.2962 2.51674 1.50134 3.10279 0.915291C3.68884 0.32924 4.4837 0 5.3125 0C6.1413 0 6.93616 0.32924 7.52221 0.915291C8.10826 1.50134 8.4375 2.2962 8.4375 3.125C8.4375 3.9538 8.10826 4.74866 7.52221 5.33471C6.93616 5.92076 6.1413 6.25 5.3125 6.25C4.4837 6.25 3.68884 5.92076 3.10279 5.33471C2.51674 4.74866 2.1875 3.9538 2.1875 3.125ZM3.125 7.5C2.2962 7.5 1.50134 7.82924 0.915291 8.41529C0.32924 9.00134 0 9.7962 0 10.625L0 11.875H10.625V10.625C10.625 9.7962 10.2958 9.00134 9.70971 8.41529C9.12366 7.82924 8.3288 7.5 7.5 7.5H3.125ZM15 11.875H11.875V10.625C11.875 9.40063 11.3725 8.29375 10.5625 7.5H11.875C12.2854 7.5 12.6917 7.58083 13.0709 7.73788C13.45 7.89492 13.7945 8.12511 14.0847 8.41529C14.3749 8.70547 14.6051 9.04997 14.7621 9.42911C14.9192 9.80826 15 10.2146 15 10.625V11.875ZM9.6875 6.25C9.30598 6.25017 8.92766 6.18048 8.57125 6.04437C9.29164 5.24283 9.68934 4.2027 9.6875 3.125C9.68917 2.04722 9.29124 1.00708 8.57063 0.205625C8.99878 0.0421233 9.45765 -0.0252017 9.91473 0.00842184C10.3718 0.0420454 10.8159 0.175794 11.2155 0.400189C11.6151 0.624584 11.9605 0.934131 12.2271 1.30689C12.4938 1.67965 12.6752 2.1065 12.7584 2.55718C12.8417 3.00786 12.8248 3.47134 12.709 3.91477C12.5932 4.3582 12.3812 4.77073 12.0882 5.12312C11.7952 5.4755 11.4282 5.75911 11.0133 5.95386C10.5984 6.1486 10.1458 6.2497 9.6875 6.25Z" fill="black"/>
</svg>
