<svg width="21" height="21" viewBox="0 0 21 21" fill="none" xmlns="http://www.w3.org/2000/svg">
<path opacity="0.7" d="M14.25 1.81539e-07C13.1959 -0.000241541 12.1565 0.246425 11.2149 0.720232C10.2734 1.19404 9.45589 1.88181 8.828 2.72844C8.2001 3.57506 7.77925 4.557 7.59917 5.59555C7.41909 6.63411 7.48479 7.70041 7.791 8.709L0 16.5V21H4.5L12.291 13.209C13.2194 13.4908 14.1977 13.5692 15.1591 13.4387C16.1206 13.3083 17.0426 12.9721 17.8624 12.453C18.6821 11.934 19.3804 11.2444 19.9095 10.4311C20.4386 9.6178 20.7862 8.70001 20.9285 7.74025C21.0709 6.78049 21.0046 5.80132 20.7343 4.86948C20.464 3.93764 19.996 3.07502 19.3622 2.34042C18.7283 1.60582 17.9436 1.01649 17.0614 0.612608C16.1792 0.208724 15.2203 -0.00022483 14.25 1.81539e-07ZM14.25 12C13.7336 11.9999 13.2201 11.9235 12.726 11.7735L11.8657 11.5125L11.2305 12.1478L8.84475 14.5335L7.8105 13.5L6.75 14.5605L7.78425 15.5947L6.59475 16.7843L5.5605 15.75L4.5 16.8105L5.53425 17.8447L3.879 19.5H1.5V17.121L8.8515 9.7695L9.4875 9.13425L9.2265 8.274C8.90594 7.21724 8.92676 6.08631 9.28601 5.04207C9.64527 3.99784 10.3247 3.09347 11.2275 2.45762C12.1304 1.82177 13.2108 1.48681 14.315 1.5004C15.4192 1.51398 16.4911 1.87542 17.378 2.53329C18.265 3.19116 18.9219 4.11197 19.2554 5.16473C19.5888 6.21749 19.5818 7.34859 19.2354 8.39714C18.8889 9.44569 18.2206 10.3583 17.3256 11.0051C16.4305 11.652 15.3543 12.0001 14.25 12Z" fill="black"/>
</svg>
