<svg width="12" height="12" viewBox="0 0 12 12" fill="none" xmlns="http://www.w3.org/2000/svg">
<path opacity="0.8" d="M0 8.90778V11.2515H2.34375L9.25625 4.33903L6.9125 1.99528L0 8.90778ZM11.0688 2.52653C11.1267 2.46871 11.1727 2.40003 11.204 2.32442C11.2354 2.24881 11.2515 2.16776 11.2515 2.0859C11.2515 2.00405 11.2354 1.923 11.204 1.84739C11.1727 1.77178 11.1267 1.7031 11.0688 1.64528L9.60625 0.182778C9.54843 0.124838 9.47975 0.0788706 9.40414 0.0475071C9.32853 0.0161437 9.24748 0 9.16563 0C9.08377 0 9.00272 0.0161437 8.92711 0.0475071C8.8515 0.0788706 8.78282 0.124838 8.725 0.182778L7.58125 1.32653L9.925 3.67028L11.0688 2.52653Z" fill="#524C4C"/>
</svg>
