<svg width="74" height="74" viewBox="0 0 74 74" fill="none" xmlns="http://www.w3.org/2000/svg">
<path d="M37 0C16.5655 0 0 16.5655 0 37C0 57.4345 16.5655 74 37 74C57.4345 74 74 57.4345 74 37C74 16.5655 57.4345 0 37 0ZM45.1887 21.1827C49.5852 21.114 53.5613 23.5042 55.4461 27.579C57.1896 32.966 55.7305 38.4462 52.6556 42.5763C50.6261 45.377 48.2004 47.7923 45.7205 49.9027C43.439 52.0264 38.3323 56.2291 36.9789 56.3458C35.7828 56.1172 34.4399 54.7623 33.4902 54.0661C28.154 50.0096 22.4108 45.0787 19.4981 39.685C17.0561 34.5069 17.0516 28.1001 20.8523 24.1302C25.7806 19.6872 33.2097 20.5568 36.9789 25.1985C37.9912 23.8854 39.2362 22.8511 40.7136 22.0987C42.2108 21.5012 43.7231 21.2056 45.1887 21.1827Z" fill="#9FCCB5"/>
</svg>
