<svg width="18" height="18" viewBox="0 0 18 18" fill="none" xmlns="http://www.w3.org/2000/svg">
<path opacity="0.5" d="M15.5556 0C16.0713 0 16.5658 0.20486 16.9305 0.569514C17.2951 0.934169 17.5 1.42875 17.5 1.94444V15.5556C17.5 16.0713 17.2951 16.5658 16.9305 16.9305C16.5658 17.2951 16.0713 17.5 15.5556 17.5H1.94444C1.42875 17.5 0.934169 17.2951 0.569514 16.9305C0.20486 16.5658 0 16.0713 0 15.5556V1.94444C0 1.42875 0.20486 0.934169 0.569514 0.569514C0.934169 0.20486 1.42875 0 1.94444 0H15.5556ZM15.0694 15.0694V9.91667C15.0694 9.07608 14.7355 8.26992 14.1411 7.67553C13.5467 7.08114 12.7406 6.74722 11.9 6.74722C11.0736 6.74722 10.1111 7.25278 9.64444 8.01111V6.93194H6.93194V15.0694H9.64444V10.2764C9.64444 9.52778 10.2472 8.91528 10.9958 8.91528C11.3568 8.91528 11.703 9.05868 11.9583 9.31394C12.2135 9.5692 12.3569 9.9154 12.3569 10.2764V15.0694H15.0694ZM3.77222 5.40556C4.20541 5.40556 4.62085 5.23347 4.92716 4.92716C5.23347 4.62085 5.40556 4.20541 5.40556 3.77222C5.40556 2.86806 4.67639 2.12917 3.77222 2.12917C3.33646 2.12917 2.91854 2.30227 2.61041 2.61041C2.30227 2.91854 2.12917 3.33646 2.12917 3.77222C2.12917 4.67639 2.86806 5.40556 3.77222 5.40556ZM5.12361 15.0694V6.93194H2.43056V15.0694H5.12361Z" fill="black"/>
</svg>
