<svg width="14" height="21" viewBox="0 0 14 21" fill="none" xmlns="http://www.w3.org/2000/svg">
<path fill-rule="evenodd" clip-rule="evenodd" d="M4 18.1309H6.5V20.1309H7.5V18.1309H10V17.1309H12C12.5304 17.1309 13.0391 16.9201 13.4142 16.5451C13.7893 16.17 14 15.6613 14 15.1309V3.18785C14 2.65742 13.7893 2.14871 13.4142 1.77364C13.0391 1.39857 12.5304 1.18785 12 1.18785H9L8.434 0.605854C8.24761 0.414137 8.02467 0.261742 7.77837 0.157679C7.53206 0.0536166 7.26739 0 7 0C6.73261 0 6.46794 0.0536166 6.22163 0.157679C5.97533 0.261742 5.75239 0.414137 5.566 0.605854L5 1.18785H2C1.46957 1.18785 0.960859 1.39857 0.585786 1.77364C0.210714 2.14871 0 2.65742 0 3.18785V15.1309C0 15.6613 0.210714 16.17 0.585786 16.5451C0.960859 16.9201 1.46957 17.1309 2 17.1309H4V18.1309ZM8.283 1.88485C8.37619 1.98073 8.48765 2.05694 8.61081 2.10898C8.73396 2.16102 8.8663 2.18784 9 2.18785H12C12.2652 2.18785 12.5196 2.29321 12.7071 2.48075C12.8946 2.66828 13 2.92264 13 3.18785V11.9009C12.8533 11.7859 12.6988 11.6813 12.5375 11.5879C11.625 11.0569 10.3055 10.7809 8.746 11.7009C7.462 12.4584 6.2545 12.6634 4.941 12.6909C4.356 12.7034 3.757 12.6809 3.1155 12.6564L2.8505 12.6464C2.23405 12.6196 1.617 12.6095 1 12.6159V3.18835C1 2.92314 1.10536 2.66878 1.29289 2.48125C1.48043 2.29371 1.73478 2.18835 2 2.18835H5C5.1337 2.18834 5.26604 2.16152 5.38919 2.10948C5.51235 2.05744 5.62381 1.98123 5.717 1.88535L6.283 1.30335C6.37619 1.2075 6.48766 1.1313 6.61082 1.07927C6.73397 1.02724 6.86631 1.00043 7 1.00043C7.13369 1.00043 7.26603 1.02724 7.38918 1.07927C7.51234 1.1313 7.62381 1.2075 7.717 1.30335L8.283 1.88485ZM1 13.6164V15.1309C1 15.3961 1.10536 15.6504 1.29289 15.838C1.48043 16.0255 1.73478 16.1309 2 16.1309H12C12.2652 16.1309 12.5196 16.0255 12.7071 15.838C12.8946 15.6504 13 15.3961 13 15.1309V13.2959C12.7328 12.9576 12.4055 12.6717 12.0345 12.4524C11.3875 12.0754 10.4575 11.8519 9.2545 12.5614C7.7755 13.4339 6.383 13.6604 4.962 13.6904C4.345 13.7034 3.715 13.6794 3.077 13.6554L2.8135 13.6454C2.20938 13.6191 1.60465 13.6094 1 13.6164Z" fill="#B3B3B3"/>
</svg>
