<svg width="65" height="65" viewBox="0 0 65 65" fill="none" xmlns="http://www.w3.org/2000/svg">
<circle cx="32.5" cy="32.5" r="32.5" fill="#FFE9E9"/>
<path d="M33.0023 21.2354C34.602 19.7422 36.6889 18.9447 38.8345 19.0067C40.98 19.0686 43.0215 19.9852 44.5396 21.5684C46.0561 23.1504 46.9351 25.2777 46.9965 27.5143C47.058 29.7508 46.2971 31.9272 44.8699 33.5972L32.9995 46L21.1319 33.5972C19.703 31.9263 18.9415 29.7481 19.0035 27.5098C19.0656 25.2714 19.9466 23.1427 21.4656 21.5608C22.9846 19.9789 25.0265 19.0637 27.1719 19.0032C29.3173 18.9427 31.4036 19.7414 33.0023 21.2354ZM42.5575 23.6321C41.5459 22.5784 40.1864 21.9683 38.7575 21.9268C37.3287 21.8852 35.9387 22.4154 34.8725 23.4086L33.0037 25.1583L31.1336 23.4101C30.072 22.4197 28.6887 21.8885 27.2651 21.9246C25.8415 21.9607 24.4846 22.5614 23.4704 23.6045C22.4563 24.6475 21.8612 26.0545 21.8061 27.5392C21.7511 29.0239 22.2403 30.4747 23.1742 31.5963L33.0009 41.8653L42.8276 31.5978C43.7576 30.4811 44.2469 29.0378 44.1967 27.5594C44.1466 26.081 43.5608 24.6774 42.5575 23.6321Z" fill="#F24822"/>
</svg>
